<svg xmlns="http://www.w3.org/2000/svg" width="1600" height="1300" viewBox="0 0 1600 1300" role="img" aria-labelledby="title description">
  <title id="title">NHANES FPCA and AFT analysis pipeline</title>
  <desc id="description">Run the raw steps notebook, then eligibility, then the covariate and FPCA notebooks in parallel, and finally the AFT spline analysis notebook. Each stage lists its CSV outputs.</desc>
  <defs>
    <linearGradient id="page" x1="0" y1="0" x2="1" y2="1">
      <stop offset="0" stop-color="#f8fbff"/>
      <stop offset="1" stop-color="#eef4f8"/>
    </linearGradient>
    <linearGradient id="navy" x1="0" y1="0" x2="1" y2="0">
      <stop offset="0" stop-color="#102a56"/>
      <stop offset="1" stop-color="#174779"/>
    </linearGradient>
    <linearGradient id="teal" x1="0" y1="0" x2="1" y2="0">
      <stop offset="0" stop-color="#087d80"/>
      <stop offset="1" stop-color="#12a29a"/>
    </linearGradient>
    <pattern id="grid" width="32" height="32" patternUnits="userSpaceOnUse">
      <path d="M32 0H0V32" fill="none" stroke="#bfd0de" stroke-width="1" opacity="0.22"/>
    </pattern>
    <filter id="shadow" x="-20%" y="-20%" width="140%" height="150%">
      <feDropShadow dx="0" dy="12" stdDeviation="14" flood-color="#112b46" flood-opacity="0.12"/>
    </filter>
    <marker id="arrow" markerWidth="12" markerHeight="12" refX="10" refY="6" orient="auto">
      <path d="M0 0L12 6L0 12Z" fill="#193f6a"/>
    </marker>
    <style>
      .sans { font-family: Inter, "Segoe UI", Arial, sans-serif; }
      .mono { font-family: "Cascadia Mono", "SFMono-Regular", Consolas, monospace; }
      .title { font: 800 54px Inter, "Segoe UI", Arial, sans-serif; letter-spacing: -1.2px; fill: #102a56; }
      .subtitle { font: 500 24px Inter, "Segoe UI", Arial, sans-serif; fill: #5b7083; }
      .header { font: 800 24px Inter, "Segoe UI", Arial, sans-serif; letter-spacing: 1.6px; fill: #fff; }
      .number { font: 800 25px Inter, "Segoe UI", Arial, sans-serif; fill: #102a56; }
      .filename { font: 600 24px "Cascadia Mono", "SFMono-Regular", Consolas, monospace; fill: #17324d; }
      .output-label { font: 800 16px Inter, "Segoe UI", Arial, sans-serif; letter-spacing: 2px; fill: #4f6577; }
      .output { font: 600 20px "Cascadia Mono", "SFMono-Regular", Consolas, monospace; fill: #0a6c70; }
      .note { font: 700 20px Inter, "Segoe UI", Arial, sans-serif; fill: #8a5700; }
      .note-small { font: 500 17px Inter, "Segoe UI", Arial, sans-serif; fill: #7c6844; }
      .arrow { fill: none; stroke: #193f6a; stroke-width: 5; stroke-linecap: round; stroke-linejoin: round; marker-end: url(#arrow); }
    </style>
  </defs>

  <rect width="1600" height="1300" rx="36" fill="url(#page)"/>
  <rect width="1600" height="1300" rx="36" fill="url(#grid)"/>
  <circle cx="1420" cy="110" r="170" fill="#1aa49b" opacity="0.05"/>
  <circle cx="130" cy="1160" r="240" fill="#174779" opacity="0.045"/>

  <text x="800" y="78" text-anchor="middle" class="title">NHANES FPCA + AFT Analysis Pipeline</text>
  <text x="800" y="119" text-anchor="middle" class="subtitle">Execution order and CSV outputs • Steps 3A and 3B can run in parallel</text>

  <!-- Step 1 -->
  <g filter="url(#shadow)">
    <rect x="310" y="160" width="980" height="155" rx="22" fill="#fff" stroke="#c9d7e2" stroke-width="2"/>
    <path d="M332 160H1268Q1290 160 1290 182V213H310V182Q310 160 332 160Z" fill="url(#navy)"/>
  </g>
  <circle cx="356" cy="187" r="25" fill="#fff"/>
  <text x="356" y="196" text-anchor="middle" class="number">1</text>
  <text x="400" y="196" class="header">PROCESS RAW STEPS</text>
  <rect x="340" y="231" width="46" height="46" rx="9" fill="#eaf2fb" stroke="#174779" stroke-width="2"/>
  <path d="M352 246L344 254L352 262M374 246L382 254L374 262M368 241L358 267" fill="none" stroke="#174779" stroke-width="3" stroke-linecap="round" stroke-linejoin="round"/>
  <text x="412" y="263" class="filename">1_Process_Raw_Steps_data.ipynb</text>
  <text x="1008" y="239" class="output-label">CSV OUTPUT</text>
  <rect x="1006" y="251" width="247" height="42" rx="11" fill="#e7f8f6" stroke="#81c9c5"/>
  <text x="1023" y="278" class="output">steps_hour.csv</text>

  <path d="M800 315V350" class="arrow"/>

  <!-- Step 2 -->
  <g filter="url(#shadow)">
    <rect x="310" y="365" width="980" height="155" rx="22" fill="#fff" stroke="#c9d7e2" stroke-width="2"/>
    <path d="M332 365H1268Q1290 365 1290 387V418H310V387Q310 365 332 365Z" fill="url(#navy)"/>
  </g>
  <circle cx="356" cy="392" r="25" fill="#fff"/>
  <text x="356" y="401" text-anchor="middle" class="number">2</text>
  <text x="400" y="401" class="header">DEFINE ELIGIBILITY</text>
  <rect x="340" y="436" width="46" height="46" rx="9" fill="#eaf2fb" stroke="#174779" stroke-width="2"/>
  <path d="M352 451L344 459L352 467M374 451L382 459L374 467M368 446L358 472" fill="none" stroke="#174779" stroke-width="3" stroke-linecap="round" stroke-linejoin="round"/>
  <text x="412" y="468" class="filename">2_Eligibility.ipynb</text>
  <text x="895" y="444" class="output-label">CSV OUTPUT</text>
  <rect x="893" y="456" width="360" height="42" rx="11" fill="#e7f8f6" stroke="#81c9c5"/>
  <text x="910" y="483" class="output">Post_2-Restricted_Patients.csv</text>

  <!-- Split arrows -->
  <path d="M800 520V556H390V592" class="arrow"/>
  <path d="M800 520V556H1210V592" class="arrow"/>

  <!-- Step 3A -->
  <g filter="url(#shadow)">
    <rect x="95" y="607" width="650" height="235" rx="22" fill="#fff" stroke="#bdd9d8" stroke-width="2"/>
    <path d="M117 607H723Q745 607 745 629V660H95V629Q95 607 117 607Z" fill="url(#teal)"/>
  </g>
  <circle cx="143" cy="634" r="25" fill="#fff"/>
  <text x="143" y="643" text-anchor="middle" class="number">3A</text>
  <text x="187" y="643" class="header">BUILD COVARIATES</text>
  <rect x="125" y="685" width="46" height="46" rx="9" fill="#e7f8f6" stroke="#087d80" stroke-width="2"/>
  <path d="M137 700L129 708L137 716M159 700L167 708L159 716M153 695L143 721" fill="none" stroke="#087d80" stroke-width="3" stroke-linecap="round" stroke-linejoin="round"/>
  <text x="191" y="716" class="filename" font-size="21">3_Combine_All_Covariates.ipynb</text>
  <text x="125" y="766" class="output-label">CSV OUTPUT</text>
  <rect x="125" y="780" width="590" height="42" rx="11" fill="#e7f8f6" stroke="#81c9c5"/>
  <text x="145" y="807" class="output">Post_4_Covariates.csv</text>

  <!-- Step 3B -->
  <g filter="url(#shadow)">
    <rect x="855" y="607" width="650" height="235" rx="22" fill="#fff" stroke="#bdd9d8" stroke-width="2"/>
    <path d="M877 607H1483Q1505 607 1505 629V660H855V629Q855 607 877 607Z" fill="url(#teal)"/>
  </g>
  <circle cx="903" cy="634" r="25" fill="#fff"/>
  <text x="903" y="643" text-anchor="middle" class="number">3B</text>
  <text x="947" y="643" class="header">RUN FPCA</text>
  <rect x="885" y="685" width="46" height="46" rx="9" fill="#e7f8f6" stroke="#087d80" stroke-width="2"/>
  <path d="M897 700L889 708L897 716M919 700L927 708L919 716M913 695L903 721" fill="none" stroke="#087d80" stroke-width="3" stroke-linecap="round" stroke-linejoin="round"/>
  <text x="951" y="716" class="filename">3_Run_FPCA.ipynb</text>
  <text x="1111" y="749" class="output-label">CSV OUTPUTS</text>
  <rect x="885" y="760" width="590" height="63" rx="11" fill="#e7f8f6" stroke="#81c9c5"/>
  <text x="902" y="782" class="output" font-size="17">Post_3_FPCA_Scores.csv</text>
  <text x="1182" y="782" class="output" font-size="17">nhanes_mean_curve.csv</text>
  <text x="902" y="807" class="output" font-size="17">nhanes_first_eigenfunction.csv</text>

  <!-- Converge arrows -->
  <path d="M390 842V882H800V916" class="arrow"/>
  <path d="M1210 842V882H800V916" class="arrow"/>

  <!-- Step 4 -->
  <g filter="url(#shadow)">
    <rect x="310" y="931" width="980" height="165" rx="22" fill="#fff" stroke="#c9d7e2" stroke-width="2"/>
    <path d="M332 931H1268Q1290 931 1290 953V984H310V953Q310 931 332 931Z" fill="url(#navy)"/>
  </g>
  <circle cx="356" cy="958" r="25" fill="#fff"/>
  <text x="356" y="967" text-anchor="middle" class="number">4</text>
  <text x="400" y="967" class="header">FIT AFT SPLINE MODEL</text>
  <rect x="340" y="1004" width="46" height="46" rx="9" fill="#eaf2fb" stroke="#174779" stroke-width="2"/>
  <path d="M352 1019L344 1027L352 1035M374 1019L382 1027L374 1035M368 1014L358 1040" fill="none" stroke="#174779" stroke-width="3" stroke-linecap="round" stroke-linejoin="round"/>
  <text x="412" y="1036" class="filename">4_AFT_Analysis_Splines.ipynb</text>
  <text x="970" y="1011" class="output-label">CSV OUTPUT</text>
  <rect x="968" y="1023" width="285" height="42" rx="11" fill="#e7f8f6" stroke="#81c9c5"/>
  <text x="985" y="1050" class="output">fpca_spline_lookup.csv</text>

  <!-- Related project -->
  <g filter="url(#shadow)">
    <rect x="250" y="1148" width="1100" height="105" rx="20" fill="#fffaf0" stroke="#d89a2b" stroke-width="2"/>
  </g>
  <circle cx="310" cy="1200" r="27" fill="#d18b0b"/>
  <path d="M310 1183L315 1194L327 1195L318 1203L321 1216L310 1209L299 1216L302 1203L293 1195L305 1194Z" fill="#fff"/>
  <text x="355" y="1193" class="note">RELATED DOWNSTREAM PROJECT · FPCA_AFT_Health_Addon</text>
  <text x="355" y="1224" class="note-small">Uses the NHANES mean curve, first eigenfunction, and FPCA spline lookup artifacts.</text>
</svg>
